<?xml version="1.0" encoding="UTF-8"?>
<svg width="11px" height="8px" viewBox="0 0 11 8" version="1.1" xmlns="http://www.w3.org/2000/svg" xmlns:xlink="http://www.w3.org/1999/xlink">
    <!-- Generator: sketchtool 48.2 (47327) - http://www.bohemiancoding.com/sketch -->
    <title>FADDCB9D-594D-4E36-86AD-691A7F055F64</title>
    <desc>Created with sketchtool.</desc>
    <defs></defs>
    <g id="GUI_Voximplant__2" stroke="none" stroke-width="1" fill="none" fill-rule="evenodd" transform="translate(-933.000000, -1915.000000)">
        <g id="Group-10" transform="translate(160.000000, 1701.000000)">
            <g id="Checkbox_active" transform="translate(768.000000, 208.000000)">
                <g id="checkmark_white" transform="translate(2.000000, 2.000000)">
                    <rect id="Rectangle-6" x="0" y="0" width="16" height="16"></rect>
                    <path d="M12.1770049,4.31097759 L7.02254652,9.43628456 L4.82301286,7.24906968 C4.40594585,6.83448011 3.72972488,6.83448011 3.31280026,7.24906968 C2.89573325,7.66394245 2.89573325,8.33623456 3.31280026,8.75096572 L6.26744022,11.6890578 C6.47590253,11.8963526 6.74929572,12 7.02254652,12 C7.29579732,12 7.56919052,11.8963526 7.77765282,11.6890578 L13.6870751,5.81287363 C14.1042845,5.39814246 14.1042845,4.72570876 13.6872175,4.31111918 C13.2702929,3.89638801 12.5940719,3.89624642 12.1770049,4.31097759 Z" id="Path" fill="#FFFFFF"></path>
                </g>
            </g>
        </g>
    </g>
</svg>